# xmcd
#
# Track frame offsets: 
#        150
#        14099
#        35567
#        52208
#        68755
#        86873
#        101992
#        119089
#        133006
#        143621
#
# Disc length: 2059 seconds
#
# Revision: 0
# Processed by: cddbd v1.5.2PL0 Copyright (c) Steve Scherf et al.
# Submitted via: ExactAudioCopy v1.3
#
DISCID=9d08090a
DTITLE=Guitar Slim, Jr. - I’ll Survive
DYEAR=2018
DGENRE=Blues
TTITLE0=It Hurts To Love Someone
TTITLE1=Postman
TTITLE2=Tired Of Your Friends
TTITLE3=The More I Give, The More You Want
TTITLE4=I Don't Want To Leave You
TTITLE5=I'll Survive
TTITLE6=I Found The Blues In New Orleans
TTITLE7=Trouble Don't Always Last
TTITLE8=Twenty-Five Lies
TTITLE9=Later For Ya Baby
EXTD=
EXTT0=
EXTT1=
EXTT2=
EXTT3=
EXTT4=
EXTT5=
EXTT6=
EXTT7=
EXTT8=
EXTT9=
PLAYORDER=
